<mxfile host="65bd71144e">
    <diagram id="U85eI0tq6iJ4bWmpbZ08" name="Page-1">
        <mxGraphModel dx="722" dy="639" grid="1" gridSize="10" guides="1" tooltips="1" connect="1" arrows="1" fold="1" page="1" pageScale="1" pageWidth="850" pageHeight="1100" background="none" math="0" shadow="1">
            <root>
                <mxCell id="0"/>
                <mxCell id="1" parent="0"/>
                <mxCell id="2" value="coupon" style="html=1;dashed=0;whiteSpace=wrap;" vertex="1" parent="1">
                    <mxGeometry x="500" y="480" width="100" height="50" as="geometry"/>
                </mxCell>
                <mxCell id="3" value="product" style="html=1;dashed=0;whiteSpace=wrap;" vertex="1" parent="1">
                    <mxGeometry x="500" y="400" width="100" height="50" as="geometry"/>
                </mxCell>
                <mxCell id="4" value="order" style="html=1;dashed=0;whiteSpace=wrap;" vertex="1" parent="1">
                    <mxGeometry x="500" y="320" width="100" height="50" as="geometry"/>
                </mxCell>
                <mxCell id="5" value="customer" style="html=1;dashed=0;whiteSpace=wrap;" vertex="1" parent="1">
                    <mxGeometry x="500" y="230" width="100" height="50" as="geometry"/>
                </mxCell>
                <mxCell id="6" value="employee" style="html=1;dashed=0;whiteSpace=wrap;" vertex="1" parent="1">
                    <mxGeometry x="500" y="140" width="100" height="50" as="geometry"/>
                </mxCell>
                <mxCell id="7" value="store&lt;div&gt;&lt;br&gt;&lt;/div&gt;" style="html=1;dashed=0;whiteSpace=wrap;" vertex="1" parent="1">
                    <mxGeometry x="500" y="60" width="100" height="50" as="geometry"/>
                </mxCell>
            </root>
        </mxGraphModel>
    </diagram>
</mxfile>